<?xml version="1.0" encoding="iso-8859-1"?>
<!-- Uploaded to: SVG Repo, www.svgrepo.com, Generator: SVG Repo Mixer Tools -->
<svg height="800px" width="800px" version="1.1" id="Layer_1" xmlns="http://www.w3.org/2000/svg" xmlns:xlink="http://www.w3.org/1999/xlink" 
	 viewBox="0 0 512 512" xml:space="preserve">
<g transform="translate(1 1)">
	<polygon style="fill:#E2E3E5;" points="97.807,93.316 457.105,93.316 457.105,21.456 97.807,21.456 	"/>
	<polygon style="fill:#CCCCCC;" points="70.86,93.316 430.158,93.316 430.158,21.456 70.86,21.456 	"/>
	<polygon style="fill:#FFFFFF;" points="7.982,21.456 7.982,425.667 43.912,425.667 43.912,93.316 43.912,21.456 	"/>
	<polygon style="fill:#E2E3E5;" points="70.86,93.316 403.211,93.316 403.211,21.456 34.93,21.456 34.93,425.667 70.86,425.667 	"/>
	<polygon style="fill:#F0F0F0;" points="277.456,488.544 511,488.544 511,93.316 277.456,93.316 	"/>
	<polygon style="fill:#E0E0E0;" points="250.509,488.544 484.053,488.544 484.053,93.316 250.509,93.316 	"/>
	<polygon style="fill:#FFFFFF;" points="70.86,488.544 304.404,488.544 304.404,93.316 70.86,93.316 	"/>
	<polygon style="fill:#F0F0F0;" points="97.807,488.544 457.105,488.544 457.105,93.316 97.807,93.316 	"/>
	<g>
		<path style="fill:#B6B6B6;" d="M484.053,497.526H70.86c-5.389,0-8.982-3.593-8.982-8.982V93.316c0-5.389,3.593-8.982,8.982-8.982
			h413.193c5.389,0,8.982,3.593,8.982,8.982v395.228C493.035,493.933,489.442,497.526,484.053,497.526z M79.842,479.561H475.07
			V102.298H79.842V479.561z"/>
		<path style="fill:#B6B6B6;" d="M70.86,434.649H7.982c-5.389,0-8.982-3.593-8.982-8.982V21.456c0-5.389,3.593-8.982,8.982-8.982
			h422.175c5.389,0,8.982,3.593,8.982,8.982v71.86c0,5.389-3.593,8.982-8.982,8.982H79.842v323.368
			C79.842,431.056,76.249,434.649,70.86,434.649z M16.965,416.684h44.912V93.316c0-5.389,3.593-8.982,8.982-8.982h350.316V30.439
			H16.965V416.684z"/>
		<path style="fill:#B6B6B6;" d="M277.456,398.719c-5.389,0-8.982-3.593-8.982-8.982V192.123c0-5.389,3.593-8.982,8.982-8.982
			c5.389,0,8.982,3.593,8.982,8.982v197.614C286.439,395.126,282.846,398.719,277.456,398.719z"/>
		<path style="fill:#B6B6B6;" d="M376.263,299.912H178.649c-5.389,0-8.982-3.593-8.982-8.982c0-5.389,3.593-8.982,8.982-8.982
			h197.614c5.389,0,8.982,3.593,8.982,8.982C385.246,296.319,381.653,299.912,376.263,299.912z"/>
	</g>
</g>
</svg>